<?xml version="1.0" encoding="utf-8"?>
<!-- Generator: Adobe Illustrator 18.0.0, SVG Export Plug-In . SVG Version: 6.00 Build 0)  -->
<!DOCTYPE svg PUBLIC "-//W3C//DTD SVG 1.1//EN" "http://www.w3.org/Graphics/SVG/1.1/DTD/svg11.dtd">
<svg version="1.1" xmlns="http://www.w3.org/2000/svg" xmlns:xlink="http://www.w3.org/1999/xlink" x="0px" y="0px"
	 viewBox="0 0 240 50" enable-background="new 0 0 240 50" xml:space="preserve">
<g id="Logo_Blanco">
	<g>
		<path fill="#FFFFFF" d="M84-1.9c0.6-0.4,1.2-0.6,1.8-0.5c0.3,0,0.6,0.1,0.8,0.3c0.3,0.1,0.5,0.3,0.7,0.5c0.2,0.2,0.5,0.4,0.7,0.6
			c0.3,0.2,0.6,0.4,0.8,0.6c0.3,0.2,0.5,0.4,0.8,0.6c0.2,0.2,0.4,0.5,0.4,0.8c0,0.2,0,0.4,0,0.7c-0.1,0.3-0.1,0.7-0.2,1.1
			c-0.1,0.4-0.1,0.9,0,1.5c0,0.1,0,0.2,0,0.3c0,0.1,0,0.2,0.1,0.4C90,4.9,90,5.1,90,5.2c0,0.1,0.1,0.3,0.1,0.4
			c0.1,0.1,0.1,0.3,0.2,0.4l0.2,0.2c0.1,0.1,0.1,0.1,0.2,0.2c0.3,0.2,0.6,0.3,0.8,0.4c0.5,0.1,0.9,0.2,1.3,0.4
			c0.4,0.2,0.7,0.4,1,0.7c0.3,0.3,0.5,0.7,0.8,1.1c0.2,0.4,0.4,0.9,0.8,1.5c0.2,0.3,0.5,0.5,0.8,0.7c0.3,0.2,0.6,0.3,0.9,0.5
			c0.2,0.1,0.3,0.1,0.5,0.1l0.1,0l0.1,0c0,0,0.1,0,0.1,0l0.3,0c0.3,0,0.7,0,1,0c0.6-0.1,1.2-0.2,1.7-0.3c0.5-0.1,1-0.2,1.4-0.2
			c0.1,0,0.1,0,0.1,0c0,0,0.1,0,0.1,0c0.1,0,0.2,0,0.3,0.1c0.2,0.1,0.4,0.1,0.6,0.2c0.4,0.2,0.9,0.4,1.3,0.7c0.8,0.5,1.6,1,2.4,1.6
			c0.2,0.1,0.4,0.3,0.5,0.4c0.2,0.1,0.3,0.3,0.5,0.4c0.3,0.3,0.6,0.6,0.9,0.9c0.6,0.6,1.1,1.2,1.7,1.8c0.6,0.6,1.1,1,1.7,1.4
			c0.5,0.4,1.1,0.7,1.6,0.9c0.5,0.2,0.9,0.3,1.1,0.3c0.1,0,0.2,0,0.3,0c0.1,0,0.1,0,0.1,0s0.1,0,0.2,0c0.1,0,0.2,0,0.2,0
			c0,0,0,0,0.1,0l0,0c0,0,0,0,0,0c0,0,0,0,0,0.1c0,0.1,0,0.1,0,0.2c0,0.2,0,0.4,0,0.6c-0.1,0.8-0.3,1.9-0.6,3
			c-0.3,1.1-0.8,2.4-1.5,3.6c-0.3,0.6-0.7,1.2-1.2,1.7c-0.2,0.3-0.5,0.6-0.8,0.8c-0.3,0.3-0.5,0.6-0.8,1c-1,1.4-1.8,2.9-2.4,4.4
			c-0.3,0.8-0.6,1.5-0.9,2.3c-0.1,0.2-0.1,0.4-0.2,0.6c-0.1,0.2-0.1,0.4-0.2,0.5c-0.1,0.3-0.3,0.7-0.4,1.1c-0.5,1.4-0.9,2.8-1.1,4.1
			c-0.1,0.6-0.2,1.2-0.1,1.8c0,0.1,0,0.3,0,0.4c0,0.1,0,0.3,0,0.4c0,0.1,0.1,0.2,0.1,0.4c0,0.1,0,0.1,0.1,0.2c0,0,0,0,0,0l0,0l0,0
			l0,0l0,0.1c0.1,0.4,0.3,0.8,0.5,1.1c0.2,0.3,0.4,0.5,0.6,0.6c0.4,0.3,0.9,0.5,1.2,0.7c0.4,0.2,0.7,0.4,0.9,0.7l0,0
			c0.6,0.6,1.1,1.3,1.5,2c0.4,0.7,0.8,1.5,1.1,2.4c-0.4-0.9-0.6-1.7-1-2.5c-0.3-0.8-0.7-1.6-1.3-2.3l0,0c-0.2-0.3-0.6-0.6-0.9-0.9
			c-0.4-0.3-0.8-0.5-1.1-0.8c-0.1-0.1-0.3-0.3-0.4-0.5c-0.1-0.2-0.3-0.5-0.3-0.8l0-0.1l0,0l0,0c0,0,0,0,0,0c0,0,0,0,0,0
			c0,0,0-0.1,0-0.1c0-0.1,0-0.2,0-0.3c0-0.1,0-0.2,0-0.3c0-0.1,0-0.2,0-0.3c0-0.5,0.1-1,0.2-1.6c0.3-1.2,0.7-2.5,1.3-3.8
			c0.1-0.3,0.3-0.7,0.4-1c0.1-0.2,0.1-0.4,0.2-0.5c0.1-0.2,0.1-0.4,0.2-0.5c0.3-0.7,0.6-1.4,0.9-2.1c0.7-1.4,1.4-2.7,2.4-3.9
			c0.2-0.3,0.5-0.6,0.7-0.8c0.2-0.2,0.5-0.6,0.8-0.9c0.6-0.6,1-1.3,1.4-2c0.8-1.4,1.4-2.7,1.8-4c0.4-1.3,0.7-2.4,0.8-3.5
			c0-0.3,0-0.5,0-0.8c0-0.1,0-0.3,0-0.4c0-0.1,0-0.3-0.1-0.5c0-0.2-0.1-0.3-0.2-0.5c-0.1-0.2-0.2-0.3-0.3-0.4
			c-0.1-0.1-0.2-0.2-0.3-0.3c-0.1-0.1-0.2-0.1-0.4-0.2c-0.1,0-0.2-0.1-0.3-0.1c-0.1,0-0.2,0-0.2-0.1c-0.2,0-0.2,0-0.3-0.1
			c-0.1,0-0.2,0-0.2,0s0,0-0.1,0c-0.1,0-0.1,0-0.2,0c-0.2,0-0.5-0.1-0.8-0.2c-0.3-0.1-0.7-0.3-1.1-0.6c-0.5-0.3-0.9-0.7-1.4-1.2
			c-0.5-0.5-1.1-1.1-1.7-1.7c-0.3-0.3-0.7-0.6-1-1c-0.2-0.2-0.4-0.3-0.6-0.5c-0.2-0.2-0.4-0.3-0.6-0.5c-0.8-0.6-1.7-1.2-2.6-1.7
			c-0.5-0.3-1-0.5-1.5-0.7c-0.3-0.1-0.5-0.2-0.8-0.3c-0.1,0-0.3-0.1-0.5-0.1c-0.2,0-0.4,0-0.6,0c-0.7,0-1.3,0.2-1.8,0.3
			c-0.5,0.1-1,0.3-1.5,0.3c-0.2,0-0.4,0-0.6,0l-0.1,0c0,0,0,0,0,0l0,0l-0.1,0c-0.1,0-0.2,0-0.3-0.1c-0.4-0.1-0.7-0.3-0.9-0.6
			c-0.2-0.3-0.5-0.7-0.8-1.2c-0.3-0.5-0.6-1-1.1-1.4c-0.1-0.1-0.2-0.2-0.3-0.3c-0.1-0.1-0.2-0.2-0.4-0.3C94.1,6.2,94,6.1,93.8,6
			c-0.1-0.1-0.3-0.1-0.4-0.2c-0.6-0.2-1.1-0.3-1.5-0.4c-0.2,0-0.3-0.1-0.4-0.2c-0.1,0-0.1-0.1-0.1-0.1L91.3,5c0-0.1-0.1-0.2-0.1-0.2
			c0-0.1-0.1-0.2-0.1-0.3C91,4.4,91,4.3,91,4.2c0-0.1,0-0.2-0.1-0.2c-0.1-0.4-0.1-0.8-0.1-1.2c0-0.4,0-0.7,0.1-1.1
			c0-0.3,0-0.7,0-0.9c-0.1-0.3-0.2-0.5-0.3-0.7c-0.1-0.2-0.3-0.3-0.4-0.5c-0.3-0.3-0.6-0.4-0.9-0.6c-0.3-0.2-0.6-0.3-0.9-0.5
			C88-1.6,87.8-1.8,87.5-2c-0.3-0.2-0.5-0.3-0.8-0.4c-0.3-0.1-0.6-0.2-0.9-0.2C85.2-2.5,84.6-2.3,84-1.9z"/>
	</g>
	<g>
		<path fill="#FFFFFF" d="M23.3,17.4l-1.6,3.8H12c0.4-1.5,0.7-3.4,0.7-5.8V7.2c0-2.1-0.2-3.9-0.7-5.2h4.2c-0.4,1.6-0.7,3.3-0.7,5.1
			V19C18.3,18.9,20.9,18.3,23.3,17.4z"/>
		<path fill="#FFFFFF" d="M34.3,21.1h-3.2v-1.3L29,21.4l-0.6,0c-1.1,0-2-0.2-2.7-0.7c-0.8-0.6-1.2-1.4-1.2-2.4c0-1,0.4-1.8,1.2-2.5
			c0.6-0.5,1.5-1,2.7-1.5c0.9-0.3,1.8-0.7,2.7-1v-0.7c0-1.9-0.8-2.9-2.5-2.9c-0.7,0-1.7,0.4-2.9,1.1l0.7-2.5c1.1-0.4,2.1-0.6,3-0.6
			c1.8,0,3,0.6,3.7,1.9c0.5,0.9,0.8,2.4,0.8,4.3c0,0.4,0,1,0,1.9c0,0.8,0,1.4,0,1.8C33.8,19,34,20.3,34.3,21.1z M31.1,19.2v-3.7
			h-3.5c-0.3,0.9-0.4,1.5-0.4,2.1c0,1.2,0.8,1.8,2.4,1.8C30,19.3,30.5,19.3,31.1,19.2z"/>
		<path fill="#FFFFFF" d="M44.1,18.4l-1,2.6c-0.9,0.3-1.8,0.4-2.6,0.4c-1.5,0-2.5-0.6-2.9-1.8c-0.2-0.5-0.2-1.7-0.2-3.7V9.7h-1.9
			L40,5v2.8h3.2v1.9H40v6.2c0,1,0.1,1.7,0.2,2.1c0.3,0.7,0.8,1,1.6,1C42.6,19,43.3,18.8,44.1,18.4z"/>
		<path fill="#FFFFFF" d="M48.6,21.1h-3.7c0.4-1.1,0.5-2.4,0.5-4v-5c0-1.2,0-1.9-0.1-2.2c-0.1-0.6-0.2-1.3-0.5-2.1h3.7
			c-0.3,1-0.4,1.7-0.5,2.1c0,0.3-0.1,1.1-0.1,2.1v5.1C48.1,18.7,48.3,20.1,48.6,21.1z M48.5,4.4c0,0.5-0.1,1-0.4,1.4
			c-0.3,0.4-0.8,0.7-1.3,0.7c-0.5,0-1-0.2-1.3-0.6C45.1,5.4,45,4.9,45,4.4c0-0.5,0.2-1,0.5-1.4c0.3-0.4,0.8-0.7,1.3-0.7
			c0.5,0,0.9,0.2,1.3,0.7C48.3,3.4,48.5,3.8,48.5,4.4z"/>
		<path fill="#FFFFFF" d="M62.1,21.1h-3.7c0.4-0.8,0.5-2.1,0.5-3.7v-4.6c0-0.9-0.1-1.6-0.3-2c-0.3-0.6-0.9-0.8-1.8-0.8
			c-0.7,0-1.6,0.3-2.7,0.9V17c0,1.6,0.2,3,0.5,4.1h-3.7c0.3-0.8,0.4-1.5,0.5-1.9c0-0.3,0.1-1,0.1-2v-5c0-1.6-0.2-3.1-0.5-4.5h3.2
			v2.4l2.1-2.4c0.6-0.2,1.2-0.3,1.8-0.3c1.4,0,2.4,0.6,3,1.7c0.5,0.9,0.7,2.2,0.7,4v4.3C61.7,19.1,61.8,20.3,62.1,21.1z"/>
		<path fill="#FFFFFF" d="M27,44l-0.1,3.2c-2.2,1-4.2,1.4-6,1.4c-2.8,0-5.1-0.9-6.9-2.7c-1.8-1.8-2.7-4.1-2.7-6.9c0-3,1-5.5,2.9-7.4
			c1.9-1.9,4.4-2.8,7.4-2.8c1.5,0,3.2,0.3,4.9,0.8V33c-1.9-1.2-3.6-1.7-5.3-1.7c-2.1,0-3.8,0.7-5,2.2c-1.2,1.4-1.7,3.2-1.7,5.3
			c0,2.1,0.5,3.9,1.6,5.2c1.2,1.5,2.8,2.3,4.9,2.3C22.8,46.3,24.8,45.6,27,44z"/>
		<path fill="#FFFFFF" d="M40.6,41.4c0,2-0.6,3.6-1.7,5c-1.2,1.5-2.8,2.2-4.7,2.2c-1.8,0-3.3-0.7-4.4-2c-1.1-1.3-1.6-2.8-1.6-4.7
			c0-2,0.6-3.7,1.7-5.1c1.2-1.4,2.9-2.2,4.9-2.2c1.8,0,3.3,0.7,4.4,2C40.1,38,40.6,39.5,40.6,41.4z M37.9,42c0-1.3-0.3-2.5-1-3.6
			c-0.8-1.2-1.8-1.8-3-1.8c-0.1,0-0.3,0-0.6,0c-1.6,0.8-2.3,2.3-2.3,4.4c0,1.4,0.3,2.6,1,3.8c0.8,1.3,1.8,2,3.1,1.9l0.6,0
			C37.1,45.7,37.9,44.1,37.9,42z"/>
		<path fill="#FFFFFF" d="M53.7,48.4H50c0.4-0.8,0.5-2.1,0.5-3.7v-4.6c0-0.9-0.1-1.6-0.3-2c-0.3-0.6-0.9-0.8-1.8-0.8
			c-0.7,0-1.6,0.3-2.7,0.9v6.1c0,1.6,0.2,3,0.5,4.1h-3.7c0.3-0.8,0.4-1.5,0.5-1.9c0-0.3,0.1-1,0.1-2v-5c0-1.6-0.2-3.1-0.5-4.5h3.2
			v2.4l2.1-2.4c0.6-0.2,1.2-0.3,1.8-0.3c1.4,0,2.4,0.6,3,1.7c0.5,0.9,0.7,2.2,0.7,4v4.3C53.3,46.3,53.4,47.5,53.7,48.4z"/>
		<path fill="#FFFFFF" d="M67.2,48.4h-3.7c0.4-0.8,0.5-2.1,0.5-3.7v-4.6c0-0.9-0.1-1.6-0.3-2c-0.3-0.6-0.9-0.8-1.8-0.8
			c-0.7,0-1.6,0.3-2.7,0.9v6.1c0,1.6,0.2,3,0.5,4.1H56c0.3-0.8,0.4-1.5,0.5-1.9c0-0.3,0.1-1,0.1-2v-5c0-1.6-0.2-3.1-0.5-4.5h3.2v2.4
			l2.1-2.4c0.6-0.2,1.2-0.3,1.8-0.3c1.4,0,2.4,0.6,3,1.7c0.5,0.9,0.7,2.2,0.7,4v4.3C66.8,46.3,66.9,47.5,67.2,48.4z"/>
		<path fill="#FFFFFF" d="M79.4,40.7l0,1.4h-7.5c0.4,3,1.8,4.5,4.1,4.5c0.9,0,1.9-0.2,3-0.7l-1,2.5c-1,0.3-1.9,0.4-2.5,0.4
			c-2,0-3.6-0.6-4.7-1.9c-1.1-1.2-1.6-2.9-1.6-4.9c0-1.9,0.4-3.5,1.3-4.8c1-1.5,2.4-2.3,4.2-2.3c1.6,0,2.8,0.6,3.6,1.9
			C79.1,37.7,79.5,39,79.4,40.7z M77.2,39.8c0-0.8-0.2-1.5-0.6-2.1c-0.5-0.7-1.1-1-1.9-1c-0.9,0-1.6,0.4-2,1.1
			c-0.4,0.6-0.6,1.4-0.6,2.4h5.2L77.2,39.8z"/>
		<path fill="#FFFFFF" d="M91.2,45.6l-1,2.5c-0.9,0.3-1.8,0.5-2.6,0.5c-2,0-3.6-0.6-4.7-1.9c-1.1-1.2-1.7-2.8-1.7-4.8
			c0-2.2,0.7-3.9,2-5.3c1.3-1.3,3-2,5.2-2c1.1,0,1.9,0.1,2.6,0.3l-0.1,3.1c-0.6-0.6-1.1-0.9-1.3-1.1c-0.5-0.3-1-0.4-1.7-0.4
			c-1.2,0-2.2,0.5-2.9,1.5c-0.6,0.9-1,2-1,3.2c0,1.5,0.3,2.7,1,3.6c0.8,1.1,1.8,1.6,3.2,1.6C89.1,46.5,90.1,46.2,91.2,45.6z"/>
		<path fill="#FFFFFF" d="M100.7,45.7l-1,2.6c-0.9,0.3-1.8,0.4-2.6,0.4c-1.5,0-2.5-0.6-2.9-1.8c-0.2-0.5-0.2-1.7-0.2-3.7v-6.2h-1.9
			l4.6-4.7V35h3.2v1.9h-3.2v6.2c0,1,0.1,1.7,0.2,2.1c0.3,0.7,0.8,1,1.6,1C99.3,46.3,100,46.1,100.7,45.7z"/>
	</g>
</g>
<g id="Extranet">
	<g>
		<path fill="#FFFFFF" d="M133.4,36.1V16.9h9.4v1.6h-7.6v7.1h7v1.6h-7v7.3h8v1.6H133.4z"/>
		<path fill="#FFFFFF" d="M151.8,29.4l4.5,6.8h-2.1l-2.8-4.5c-0.1-0.2-0.2-0.3-0.3-0.5c-0.1-0.2-0.2-0.4-0.3-0.6h-0.1
			c0,0.1-0.1,0.2-0.2,0.4s-0.2,0.3-0.3,0.6l-3,4.7h-2l4.6-6.7l-4.5-7h2l2.9,4.8c0.1,0.2,0.3,0.5,0.4,0.7c0.1,0.2,0.2,0.4,0.3,0.5
			h0.1c0.1-0.2,0.2-0.3,0.3-0.5c0.1-0.2,0.2-0.4,0.3-0.5l3-4.9h1.9L151.8,29.4z"/>
		<path fill="#FFFFFF" d="M165,36c-0.6,0.3-1.2,0.4-1.9,0.4c-2.2,0-3.3-1.3-3.3-3.8v-8.7h-2.4v-1.5h2.4v-3.5l1.7-0.6v4h3.5v1.5h-3.5
			v8.4c0,0.9,0.2,1.6,0.5,2c0.3,0.4,0.8,0.6,1.5,0.6c0.5,0,1.1-0.2,1.5-0.5V36z"/>
		<path fill="#FFFFFF" d="M174.6,24.1c-0.4-0.3-0.9-0.4-1.6-0.4c-0.5,0-0.9,0.1-1.2,0.3s-0.7,0.4-0.9,0.7c-0.3,0.3-0.5,0.6-0.7,1
			c-0.2,0.4-0.3,0.8-0.4,1.2c-0.1,0.4-0.2,0.8-0.2,1.3c0,0.4-0.1,0.8-0.1,1.2v6.7h-1.7V22.4h1.7v2.9h0.1c0.2-0.5,0.4-0.9,0.6-1.3
			s0.5-0.7,0.9-1c0.3-0.3,0.7-0.5,1.1-0.6c0.4-0.1,0.8-0.2,1.2-0.2c0.3,0,0.5,0,0.7,0.1c0.2,0,0.4,0.1,0.6,0.2V24.1z"/>
		<path fill="#FFFFFF" d="M185,36.1v-2.4H185c-0.4,0.9-1.1,1.6-1.8,2s-1.6,0.7-2.6,0.7c-0.7,0-1.3-0.1-1.8-0.3s-1-0.5-1.4-0.8
			c-0.4-0.3-0.7-0.8-0.9-1.2c-0.2-0.5-0.3-1-0.3-1.6c0-1.2,0.4-2.2,1.2-3c0.8-0.7,1.9-1.2,3.5-1.4l4.2-0.6c0-2.6-1-4-3.1-4
			c-1.6,0-3.1,0.6-4.5,1.8v-1.9c0.3-0.2,0.6-0.4,1-0.6c0.4-0.2,0.7-0.3,1.1-0.4s0.8-0.2,1.2-0.3c0.4-0.1,0.8-0.1,1.2-0.1
			c1.5,0,2.7,0.4,3.5,1.3s1.2,2.1,1.2,3.8v8.9H185z M181.5,29.5c-0.6,0.1-1.1,0.2-1.6,0.3c-0.4,0.1-0.8,0.3-1.1,0.5
			c-0.3,0.2-0.5,0.5-0.6,0.8s-0.2,0.7-0.2,1.2c0,0.4,0.1,0.7,0.2,1c0.1,0.3,0.3,0.6,0.6,0.8c0.2,0.2,0.5,0.4,0.9,0.5
			c0.4,0.1,0.8,0.2,1.2,0.2c0.6,0,1.2-0.1,1.7-0.3s1-0.6,1.3-1s0.7-0.9,0.9-1.5s0.3-1.2,0.3-1.9V29L181.5,29.5z"/>
		<path fill="#FFFFFF" d="M200.1,36.1v-7.9c0-3.1-1.1-4.7-3.4-4.7c-0.6,0-1.2,0.1-1.7,0.4c-0.5,0.2-1,0.6-1.3,1
			c-0.4,0.4-0.7,0.9-0.9,1.5c-0.2,0.6-0.3,1.2-0.3,1.9v7.9h-1.7V22.4h1.7v2.4h0.1c1-1.8,2.6-2.7,4.6-2.7c1.5,0,2.6,0.5,3.4,1.5
			c0.8,1,1.2,2.4,1.2,4.2v8.4H200.1z"/>
		<path fill="#FFFFFF" d="M206.8,29.6c0,0.8,0.1,1.6,0.3,2.3c0.2,0.7,0.5,1.2,0.9,1.7c0.4,0.5,0.9,0.8,1.5,1.1
			c0.6,0.2,1.2,0.4,2,0.4c1.5,0,3-0.5,4.4-1.6V35c-1.3,0.9-2.9,1.4-4.8,1.4c-0.9,0-1.8-0.2-2.5-0.5c-0.8-0.3-1.4-0.8-1.9-1.4
			c-0.5-0.6-0.9-1.4-1.2-2.3s-0.4-1.9-0.4-3.1c0-1,0.2-2,0.5-2.9c0.3-0.9,0.7-1.6,1.3-2.3c0.6-0.6,1.2-1.1,2-1.5
			c0.8-0.4,1.6-0.5,2.5-0.5c0.9,0,1.7,0.2,2.3,0.5c0.7,0.3,1.3,0.7,1.7,1.3c0.5,0.6,0.8,1.3,1.1,2.1s0.4,1.7,0.4,2.8v0.9H206.8z
			 M215,28.1c0-1.4-0.4-2.5-1-3.3c-0.7-0.8-1.6-1.2-2.7-1.2c-0.6,0-1.1,0.1-1.6,0.3c-0.5,0.2-0.9,0.5-1.3,0.9
			c-0.4,0.4-0.7,0.9-0.9,1.4c-0.2,0.6-0.4,1.2-0.5,1.9H215z"/>
		<path fill="#FFFFFF" d="M226,36c-0.6,0.3-1.2,0.4-1.9,0.4c-2.2,0-3.3-1.3-3.3-3.8v-8.7h-2.4v-1.5h2.4v-3.5l1.7-0.6v4h3.5v1.5h-3.5
			v8.4c0,0.9,0.2,1.6,0.5,2c0.3,0.4,0.8,0.6,1.5,0.6c0.5,0,1.1-0.2,1.5-0.5V36z"/>
	</g>
</g>
</svg>
